<?xml version="1.0" encoding="UTF-8" standalone="no"?>
<!-- Created with Inkscape (http://www.inkscape.org/) -->

<svg
   xmlns:dc="http://purl.org/dc/elements/1.1/"
   xmlns:cc="http://creativecommons.org/ns#"
   xmlns:rdf="http://www.w3.org/1999/02/22-rdf-syntax-ns#"
   xmlns:svg="http://www.w3.org/2000/svg"
   xmlns="http://www.w3.org/2000/svg"
   xmlns:sodipodi="http://sodipodi.sourceforge.net/DTD/sodipodi-0.dtd"
   xmlns:inkscape="http://www.inkscape.org/namespaces/inkscape"
   version="1.1"
   id="svg815"
   width="166.39999"
   height="163.84"
   viewBox="0 0 166.39999 163.84"
   sodipodi:docname="TechLab logo monochrome.svg"
   inkscape:version="0.92.4 (5da689c313, 2019-01-14)"
   inkscape:export-filename="C:\Users\2337714\Pictures\Techlab Logo\Bar logo\TechLab logo monochrome.png"
   inkscape:export-xdpi="979.44812"
   inkscape:export-ydpi="979.44812">
  <metadata
     id="metadata821">
    <rdf:RDF>
      <cc:Work
         rdf:about="">
        <dc:format>image/svg+xml</dc:format>
        <dc:type
           rdf:resource="http://purl.org/dc/dcmitype/StillImage" />
        <dc:title></dc:title>
      </cc:Work>
    </rdf:RDF>
  </metadata>
  <defs
     id="defs819" />
  <sodipodi:namedview
     pagecolor="#ffffff"
     bordercolor="#666666"
     borderopacity="1"
     objecttolerance="10"
     gridtolerance="10"
     guidetolerance="10"
     inkscape:pageopacity="0"
     inkscape:pageshadow="2"
     inkscape:window-width="1920"
     inkscape:window-height="1017"
     id="namedview817"
     showgrid="false"
     inkscape:zoom="2.496338"
     inkscape:cx="-73.668674"
     inkscape:cy="103.46994"
     inkscape:window-x="1912"
     inkscape:window-y="-8"
     inkscape:window-maximized="1"
     inkscape:current-layer="svg815" />
  <path
     d="m 57.528472,123.2386 c -10.073581,0 -17.407967,-5.56159 -18.076766,-15.99997 -0.355199,-5.59679 2.950395,-10.115182 5.59679,-14.719974 L 58.85647,68.518701 62.920458,61.478715 c 0.5728,-0.995199 1.7824,-2.844795 2.08,-3.839993 0.2432,-0.806399 0.208,-1.724797 0.208,-2.559995 v -9.919982 c -0.006,-0.751999 0.064,-1.791997 -0.512,-2.367996 -0.6016,-0.604798 -1.5488,-0.428799 -2.368,-0.748798 -1.763191,-0.687999 -2.927989,-2.691195 -2.70079,-4.563193 0.3712,-3.100794 2.576,-3.836792 5.26079,-3.839992 h 36.479932 c 0.7808,0 1.8336,-0.0416 2.56,0.236799 1.76319,0.675199 2.92479,2.700795 2.70079,4.563193 -0.1856,1.542397 -1.2384,3.033594 -2.70079,3.603193 -0.8192,0.319999 -1.7664,0.144 -2.368,0.748798 -0.6144,0.617599 -0.5088,1.875197 -0.4608,2.687995 v 9.599983 c -0.0512,0.716798 -0.08,1.548797 0.003,2.239995 0.3712,0.982398 1.5488,2.876795 2.096,3.839993 l 4.43519,7.679986 12.70397,22.079958 c 1.8528,3.251194 4.8768,7.731186 5.85279,11.199981 2.1184,7.51038 -1.25119,15.50717 -8.18238,19.16156 -2.9088,1.5328 -6.03519,1.9552 -9.27998,1.9584 v -8.95999 c 1.09759,0 2.13119,0.0512 3.19999,-0.2528 3.33439,-0.94719 6.42559,-4.45759 5.98079,-8.06718 -0.256,-2.08 -2.1216,-4.84159 -3.19039,-6.719988 L 98.673798,71.398696 c -1.2,-2.092796 -5.49119,-9.142383 -5.96799,-10.87998 -0.3168,-1.155198 -0.2944,-2.025596 -0.2976,-3.199994 V 47.078741 c 0,-0.927998 -0.02596,-3.947227 -0.02596,-4.786856 -0.715287,0 -2.24284,-0.0099 -3.17404,-0.01314 h -15.03997 v 14.079974 c -0.003,1.564797 -0.003,2.303996 -0.4608,3.839993 -0.7296,2.454395 -4.76159,8.915183 -6.25918,11.519978 l -12.88958,22.399958 c -1.276798,2.243196 -5.142391,8.553592 -5.798389,10.559982 -1.359998,4.15359 1.555197,8.20799 5.567989,9.34718 1.068798,0.304 2.102396,0.2528 3.199994,0.2528 v 8.95999 z"
     id="Selection"
     inkscape:connector-curvature="0"
     style="fill:#ffffff;fill-opacity:1;stroke:none;stroke-width:0.3199994"
     sodipodi:nodetypes="ccccccscccccsccccccccccccccccccccscccccccccccc" />
  <path
     d="m 60.178006,96.72835 c 0,0 13.439975,0 13.439975,0 0,0 0,26.55995 0,26.55995 0,0 -13.439975,0 -13.439975,0 0,0 0,-26.55995 0,-26.55995 z"
     id="Selection #1"
     inkscape:connector-curvature="0"
     style="fill:#ffffff;fill-opacity:1;stroke:none;stroke-width:0.3199994" />
  <path
     d="m 76.401771,71.805145 c 0,0 13.439975,0 13.439975,0 0,0 0,51.519905 0,51.519905 0,0 -13.439975,0 -13.439975,0 0,0 0,-51.519905 0,-51.519905 z"
     id="Selection #2"
     inkscape:connector-curvature="0"
     style="fill:#ffffff;fill-opacity:1;stroke:none;stroke-width:0.3199994;stroke-opacity:1" />
  <path
     d="m 92.738887,93.121913 c 0,0 13.439973,0 13.439973,0 0,0 0,30.399947 0,30.399947 0,0 -13.439973,0 -13.439973,0 0,0 0,-30.399947 0,-30.399947 z"
     id="Selection #3"
     inkscape:connector-curvature="0"
     style="fill:#ffffff;fill-opacity:1;stroke:none;stroke-width:0.3199994" />
  <path
     d="m 72.326771,7.1926913 c 0.630399,-0.0576 0.931198,-0.153599 1.599997,0 5.20639,0.598399 4.150392,8.4415857 -0.959998,7.7855867 -3.695994,-0.470399 -5.241591,-5.7695893 -0.639999,-7.7855867 z m 8.319984,8.3487857 c 2.531195,-0.415999 4.860791,0.048 6.595188,2.099196 2.841594,3.366394 1.219198,8.943983 -3.395194,10.041581 -6.476788,1.542397 -10.47678,-6.038388 -6.332788,-10.33278 0.934398,-0.966399 1.878396,-1.417598 3.132794,-1.807997 z"
     id="Selection #4"
     inkscape:connector-curvature="0"
     style="fill:#ffffff;fill-opacity:1;stroke:none;stroke-width:0.3199994" />
  <path
     d="m 92.877413,23.03634 c 3.961593,-0.860799 5.007991,3.788792 1.907197,4.96639 -1.971196,0.748799 -4.092793,-1.049598 -3.683193,-2.963194 0.233599,-1.094398 0.876798,-1.507197 1.775996,-2.003196 z m -7.295986,23.372756 c 2.534395,-0.387199 2.444795,2.182396 1.139198,2.700795 -1.491197,0.591999 -3.075194,-1.343998 -1.139198,-2.700795 z"
     id="Selection #6"
     inkscape:connector-curvature="0"
     style="fill:#ffffff;fill-opacity:1;stroke:none;stroke-width:0.3199994" />
  <path
     d="m 86.791803,0.98389061 c 1.907197,-0.3295994 3.612793,-0.08 4.940791,1.48159729 2.239996,2.630395 1.004798,6.8767866 -2.380796,7.7599861 -5.897589,1.542397 -8.854383,-7.0367875 -2.559995,-9.24158339 z M 79.431817,49.041401 c 4.364792,-0.943998 5.631989,4.860791 1.919996,6.246388 -2.131196,0.793599 -4.431991,-1.292797 -4.083192,-3.603193 0.208,-1.382397 1.011198,-2.028796 2.163196,-2.643195 z"
     id="Selection #5"
     inkscape:connector-curvature="0"
     style="fill:#ffffff;fill-opacity:1;stroke:none;stroke-width:0.3199994" />
  <text
     xml:space="preserve"
     style="font-style:normal;font-variant:normal;font-weight:normal;font-stretch:normal;font-size:74.66666412px;line-height:1.25;font-family:Arial;-inkscape-font-specification:Arial;letter-spacing:0px;word-spacing:0px;fill:#ffffff;fill-opacity:1;stroke:none;stroke-width:1;"
     x="29.554167"
     y="145.74548"
     id="text2687"><tspan
       sodipodi:role="line"
       id="tspan2685"
       x="29.554167"
       y="145.74548"
       style="font-size:26.66666603px;fill:#ffffff;fill-opacity:1;stroke-width:1;"><tspan
         style="font-style:normal;font-variant:normal;font-weight:bold;font-stretch:normal;font-size:26.66666603px;font-family:Arial;-inkscape-font-specification:'Arial Bold';fill:#ffffff;fill-opacity:1;stroke-width:1;"
         id="tspan2691">Tech</tspan><tspan
         style="font-style:normal;font-variant:normal;font-weight:bold;font-stretch:normal;font-size:26.66666603px;font-family:Arial;-inkscape-font-specification:'Arial Bold';stroke-width:1;fill:#ffffff;fill-opacity:1;"
         id="tspan2695">Lab</tspan></tspan></text>
  <text
     xml:space="preserve"
     style="font-style:normal;font-variant:normal;font-weight:normal;font-stretch:normal;font-size:21.33333397px;line-height:1.25;font-family:Arial;-inkscape-font-specification:Arial;letter-spacing:0px;word-spacing:0px;fill:#ffffff;fill-opacity:1;stroke:none;stroke-width:1;"
     x="4.0300775"
     y="160.0108"
     id="text2704"><tspan
       sodipodi:role="line"
       id="tspan2702"
       x="4.0300775"
       y="160.0108"
       style="font-size:17.33333397px;letter-spacing:-0.5px;fill:#ffffff;fill-opacity:1;stroke-width:1;">Supporting Innovation</tspan></text>
</svg>
